<?xml version="1.0" encoding="UTF-8"?>
<svg width="30px" height="30px" viewBox="0 0 30 30" version="1.1" xmlns="http://www.w3.org/2000/svg" xmlns:xlink="http://www.w3.org/1999/xlink">
    <!-- Generator: Sketch 43.2 (39069) - http://www.bohemiancoding.com/sketch -->
    <title>logo</title>
    <desc>Created with Sketch.</desc>
    <defs></defs>
    <g id="Page-1" stroke="none" stroke-width="1" fill="none" fill-rule="evenodd">
        <g id="logo">
            <g transform="translate(10.000000, 0.000000)">
                <g id="i-bottom" transform="translate(0.000000, 7.104247)">
                    <rect id="Rectangle" fill="#22245E" x="0.0484287559" y="-1.13686838e-13" width="4.84287559" height="19.1064534"></rect>
                    <polygon id="Rectangle" fill="#C0C0C0" points="4.89130435 -1.13686838e-13 9.73417994 3.16309294 9.73418051 22.2695467 4.89130491 19.1064538"></polygon>
                    <polygon id="Rectangle" fill="#919191" points="5.32716315 1.14726972 9.20146362 3.67605488 9.20146362 18.7596525 5.3271636 16.2946249"></polygon>
                    <polygon id="Path-2" fill="#5C62FF" points="0.0280924619 19.0939568 4.86954924 19.0939568 9.69331818 22.2583425 4.86954924 22.2583425"></polygon>
                    <path d="M7.5454715,19.8124655 C7.97341492,19.8124655 8.21128491,19.4963731 8.07676901,19.1064534 C7.9422531,18.7165337 7.48628974,18.4004413 7.05834632,18.4004413 C6.63040291,18.4004413 6.39253291,18.7165337 6.52704882,19.1064534 C6.66156472,19.4963731 7.11752809,19.8124655 7.5454715,19.8124655 Z" id="Oval" fill="#919191"></path>
                </g>
                <g id="i-top" transform="translate(0.048429, 0.000000)" fill="#22245E">
                    <rect id="Rectangle-2" x="0" y="0" width="4.84287559" height="4.41257584"></rect>
                </g>
            </g>
        </g>
    </g>
</svg>